HIERARCHY
ROOT Hips
{
  OFFSET 90.7885 88.945 -76.2838
  CHANNELS 6 Xposition Yposition Zposition Zrotation Xrotation Yrotation
  JOINT LeftUpLeg
  {
    OFFSET 8.64259 1.95398 -2.38835
    CHANNELS 3 Zrotation Xrotation Yrotation
    JOINT LeftLeg
    {
      OFFSET 43.7702 0 0
      CHANNELS 3 Zrotation Xrotation Yrotation
      JOINT LeftFoot
      {
        OFFSET 40.6238 0 0
        CHANNELS 3 Zrotation Xrotation Yrotation
        JOINT LeftToeBase
        {
          OFFSET 12.7242 0 0
          CHANNELS 3 Zrotation Xrotation Yrotation
          End Site
          {
            OFFSET 0 0 0
          }
        }
      }
    }
  }
  JOINT RightUpLeg
  {
    OFFSET -8.2249 1.95398 -2.59336
    CHANNELS 3 Zrotation Xrotation Yrotation
    JOINT RightLeg
    {
      OFFSET 43.5653 0 0
      CHANNELS 3 Zrotation Xrotation Yrotation
      JOINT RightFoot
      {
        OFFSET 40.6238 0 0
        CHANNELS 3 Zrotation Xrotation Yrotation
        JOINT RightToeBase
        {
          OFFSET 12.7242 0 0
          CHANNELS 3 Zrotation Xrotation Yrotation
          End Site
          {
            OFFSET 0 0 0
          }
        }
      }
    }
  }
  JOINT Spine
  {
    OFFSET 0.165834 0.87714 6.61349
    CHANNELS 3 Zrotation Xrotation Yrotation
    JOINT Spine1
    {
      OFFSET 7.38963 1.71661e-005 0
      CHANNELS 3 Zrotation Xrotation Yrotation
      JOINT Spine2
      {
        OFFSET 11.9445 1.14441e-005 0
        CHANNELS 3 Zrotation Xrotation Yrotation
        JOINT Spine3
        {
          OFFSET 14.7254 4.19617e-005 0
          CHANNELS 3 Zrotation Xrotation Yrotation
          JOINT Spine4
          {
            OFFSET 10.9679 0 0
            CHANNELS 3 Zrotation Xrotation Yrotation
            JOINT RightShoulder
            {
              OFFSET 2.46616 -1.6653 3.69651
              CHANNELS 3 Zrotation Xrotation Yrotation
              JOINT RightArm
              {
                OFFSET 13.0012 0 0
                CHANNELS 3 Zrotation Xrotation Yrotation
                JOINT RightForeArm
                {
                  OFFSET 28.7848 1.52588e-005 0
                  CHANNELS 3 Zrotation Xrotation Yrotation
                  JOINT RightHand
                  {
                    OFFSET 26.5688 1.52588e-005 0
                    CHANNELS 3 Zrotation Xrotation Yrotation
                    End Site
                    {
                      OFFSET 0 0 0
                    }
                  }
                }
              }
            }
            JOINT LeftShoulder
            {
              OFFSET 2.38034 -1.29275 -3.7523
              CHANNELS 3 Zrotation Xrotation Yrotation
              JOINT LeftArm
              {
                OFFSET 16.3182 6.10352e-005 0
                CHANNELS 3 Zrotation Xrotation Yrotation
                JOINT LeftForeArm
                {
                  OFFSET 27.0901 0 0
                  CHANNELS 3 Zrotation Xrotation Yrotation
                  JOINT LeftHand
                  {
                    OFFSET 24.5451 1.52588e-005 0
                    CHANNELS 3 Zrotation Xrotation Yrotation
                    End Site
                    {
                      OFFSET 0 0 0
                    }
                  }
                }
              }
            }
            JOINT Neck
            {
              OFFSET 5.0226 -0.0266342 0
              CHANNELS 3 Zrotation Xrotation Yrotation
              JOINT Head
              {
                OFFSET 6.69363 2.86102e-005 0
                CHANNELS 3 Zrotation Xrotation Yrotation
                End Site
                {
                  OFFSET 0 0 0
                }
              }
            }
          }
        }
      }
    }
  }
}
MOTION
Frames:	7
Frame Time:	0.0416667
39.7382 50.6838 15.8961 -9.77327 -52.697 -14.8202 -60.0329 66.987 1.78868 -139.086 15.8808 9.87394 99.8192 16.6291 -3.23464 44.705 8.10067 -19.5337 110.535 82.5596 133.286 -133.662 -15.8009 -2.24679 117.012 -26.5319 4.52537 42.5309 -3.25303 6.69697 0.576646 13.5386 -90.0088 -0.204651 1.14641 0.0410653 -11.8751 1.14711 -0.0094574 -34.4139 1.08106 0.383749 -14.4013 1.08107 0.383747 94.1729 -4.95696 -109.162 -14.9847 10.0372 -34.1734 -0.646289 -18.7917 -15.1186 -80.8668 -10.4612 6.20877 -84.6839 -8.74624 77.3134 7.14514 -14.9795 -69.952 6.20505 8.00852 -4.44742 58.6022 3.13815 1.10052 15.3071 -2.41905 -10.136 -3.20937 0.282104 7.53743 
40.3608 48.4973 12.7568 -13.5604 -56.501 -16.7336 -57.581 65.3207 0.472046 -142.454 12.3545 10.0848 102.392 18.6944 -0.404838 50.2262 5.14924 -16.9681 103.93 82.4183 138.174 -136.81 -19.1599 -2.51644 117.949 -27.0213 4.96453 39.3615 -3.83869 8.84311 0.426292 13.2606 -90.2415 0.35368 0.760453 -0.436215 -11.3171 0.740519 -0.469278 -33.8539 0.856392 -0.187494 -13.8413 0.856391 -0.187494 93.4978 0.0657732 -115.921 -11.1497 9.63295 -33.0067 0.580877 -22.3506 -11.3751 -70.8036 -10.2692 8.04533 -88.1192 -19.5462 73.2578 17.9453 -14.2319 -63.0697 4.29651 6.65881 -6.11448 52.7123 3.4572 2.42682 -0.772772 0.117939 -0.579314 9.24438 0.22613 0.33689 
40.6523 46.637 9.05811 -16.0149 -59.8785 -18.9191 -50.6376 63.6186 -3.66586 -145.137 12.2397 10.6762 103.782 18.0375 -4.04288 40.2054 8.6169 -17.9104 93.1288 82.3301 146.773 -138.84 -23.041 -2.73549 120.233 -28.2102 6.02829 35.4598 -4.24147 10.1061 0.1786 12.9876 -90.3584 0.898587 0.221558 -0.690129 -10.7725 0.190972 -0.699221 -33.3067 0.418715 -0.591647 -13.294 0.418724 -0.59165 90.7773 -0.761116 -124.569 -18.2079 5.41861 -28.0692 3.69775 -22.9123 -8.55562 -65.7749 -8.96325 7.2693 -91.5776 -29.7809 70.273 25.4472 -14.7433 -61.2233 2.30502 9.29819 -3.91053 50.5242 2.30418 0.438751 -11.8257 0.157706 9.0893 17.8981 -1.42071 -6.83863 
40.7076 44.8905 5.36755 -17.6538 -63.1332 -20.9735 -46.9408 60.9114 -5.56952 -147.252 13.9598 11.1592 104.378 19.1186 -2.71802 31.9276 10.8937 -17.2302 77.2808 81.6497 160.269 -140.764 -23.81 -3.09051 123.698 -27.9981 9.73449 31.9893 -4.15829 9.85786 0.082815 12.9634 -90.3325 0.946817 0.039977 -0.645888 -10.7243 0.0115067 -0.64703 -33.2583 0.232235 -0.604015 -13.2456 0.232237 -0.604024 89.9153 0.956187 -129.795 -20.3093 3.20979 -23.8412 4.20065 -21.5728 -7.52217 -62.7316 -9.06169 8.50681 -92.6235 -31.823 69.0947 26.1616 -16.8221 -62.6371 2.0342 13.9755 -0.773068 45.2767 2.46597 1.57046 -10.5578 -0.0258475 12.142 18.1048 -2.31371 -9.44711 
40.6605 43.3051 1.92167 -19.5967 -67.476 -23.0605 -43.4701 60.107 -6.91472 -148.488 13.3113 11.3713 105.522 17.7463 -7.55979 19.2578 13.3879 -14.7155 70.1349 80.3643 164.885 -142.623 -25.301 -3.40506 124.819 -28.3416 10.9425 25.8007 -5.08437 11.8505 0.0635761 13.2607 -90.3368 0.351711 0.00143533 -0.653813 -11.3193 -0.0273392 -0.653258 -33.8535 0.197864 -0.623163 -13.8408 0.197869 -0.623169 88.7555 -6.6971 -124.114 -28.3666 5.14971 -33.545 7.86416 -28.3798 -3.53485 -55.7043 -8.91641 9.74783 -91.727 -27.9291 69.2116 24.0415 -18.2809 -63.8079 3.88176 21.0118 0.0523388 28.3164 0.785482 -1.44575 -0.267329 0.794287 10.0497 11.2297 -1.46452 -7.34231 
41.3315 42.1135 -1.24051 -6.97852 -74.3289 -12.6727 -50.6456 57.1982 -3.64502 -148.341 13.7642 11.5685 104.824 17.2204 -8.13454 8.25392 13.6946 -10.8426 61.8414 83.3649 164.725 -144.561 -29.1391 -3.40343 124.554 -27.8459 12.4735 18.9836 -4.71238 10.8959 -0.496786 13.7401 -90.4378 -0.612582 -1.14896 -0.915337 -12.2833 -1.18813 -0.863902 -34.8182 -0.820773 -1.21833 -14.8056 -0.820773 -1.21832 96.6235 12.1346 -118.628 -9.61509 8.81324 -34.7037 3.44816 -28.9135 -6.37849 -47.046 -5.47743 4.49656 -89.8557 -21.7115 70.3765 19.1477 -20.3098 -65.3886 5.22654 26.6235 0.00880738 35.3548 3.14753 5.088 13.4318 1.39834 4.27811 1.82253 0.190186 -2.29934 
40.3403 40.4291 -4.34694 -18.7919 -74.7555 -22.1653 -36.9762 56.0113 -12.4203 -149.9 15.2472 11.9874 103.397 16.2148 -9.0427 0.00303699 15.9554 -10.0239 54.4389 76.0853 177.246 -145.575 -25.8208 -4.15319 125.156 -29.1062 10.7236 14.8058 -5.32783 11.8735 0.0765705 13.9106 -90.3921 -0.94799 0.0111964 -0.760114 -12.6192 -0.0222636 -0.759875 -35.1526 0.239113 -0.721612 -15.1399 0.239121 -0.721611 92.7556 0.557524 -118.983 -24.7874 9.47668 -30.7727 2.00074 -30.4291 -9.95918 -42.1966 -4.32346 2.50232 -87.9562 -14.6196 71.4178 12.6815 -21.8979 -67.3569 8.90734 32.9415 -1.79661 28.4303 3.37778 8.10267 25.9181 0.329067 -1.686 -5.83956 0.847427 2.34665 
